<?xml version="1.0" standalone="no"?>
<!DOCTYPE svg PUBLIC "-//W3C//DTD SVG 20010904//EN"
 "http://www.w3.org/TR/2001/REC-SVG-20010904/DTD/svg10.dtd">
<svg version="1.0" xmlns="http://www.w3.org/2000/svg"
 width="240.000000pt" height="240.000000pt" viewBox="0 0 240.000000 240.000000"
 preserveAspectRatio="xMidYMid meet">

<g transform="translate(0.000000,240.000000) scale(0.100000,-0.100000)"
fill="#000000" stroke="none">
<path d="M602 1953 c-23 -8 -64 -36 -91 -62 -83 -81 -81 -65 -81 -691 0 -623
-2 -609 80 -690 81 -82 67 -80 690 -80 623 0 607 -2 688 79 84 84 82 68 82
697 l0 551 -31 63 c-33 64 -86 112 -152 137 -23 8 -187 11 -587 11 -470 0
-562 -2 -598 -15z m1168 -115 c33 -17 51 -35 67 -68 21 -40 23 -58 23 -198 0
-143 -1 -154 -17 -147 -80 34 -85 34 -648 34 -537 1 -562 0 -604 -19 -24 -11
-45 -20 -47 -20 -9 0 -3 311 7 337 14 37 47 73 84 89 24 10 141 13 560 14
l531 0 44 -22z m10 -510 c18 -13 43 -36 54 -51 20 -27 21 -42 24 -315 3 -282
2 -288 -20 -332 -17 -33 -35 -51 -68 -68 l-45 -23 -542 3 c-529 3 -542 3 -569
24 -15 11 -37 33 -48 48 -20 26 -21 40 -21 331 0 292 1 305 21 332 11 15 36
38 54 51 l33 22 547 0 547 0 33 -22z"/>
<path d="M777 1782 c-22 -24 -21 -55 1 -75 17 -15 61 -17 420 -17 389 0 403 1
422 20 24 24 25 38 4 68 l-15 22 -408 0 c-382 0 -409 -1 -424 -18z"/>
<path d="M777 1612 c-22 -25 -21 -48 3 -72 19 -19 33 -20 420 -20 387 0 401 1
420 20 25 25 26 52 2 73 -17 15 -61 17 -424 17 -380 0 -406 -1 -421 -18z"/>
<path d="M803 1200 c-74 -30 -48 -150 32 -150 54 0 81 34 75 95 -4 43 -63 73
-107 55z"/>
<path d="M1171 1199 c-52 -21 -66 -77 -30 -123 28 -35 80 -36 114 -1 31 30 32
66 3 99 -28 30 -55 38 -87 25z"/>
<path d="M1530 1197 c-76 -38 -51 -147 34 -147 80 0 106 109 35 145 -34 18
-37 18 -69 2z"/>
<path d="M768 926 c-10 -7 -18 -26 -18 -44 0 -61 158 -171 297 -207 73 -19
233 -19 306 0 132 34 297 148 297 204 0 30 -27 61 -53 61 -9 0 -41 -22 -72
-49 -93 -81 -202 -121 -330 -121 -125 0 -225 38 -319 120 -59 52 -79 58 -108
36z"/>
</g>
</svg>
